# xmcd CD database file
# Copyright (C) 1996 Ti Kan
#
# Track frame offsets:
# 	182
# 	15447
# 	31862
# 	46572
# 	60155
# 	72245
# 	91047
# 	103785
# 	118902
# 	128757
# 	142825
# 	159605
# 	173757
# 	187052
# 	204832
#
# Disc length: 2910 seconds
#
# Revision: 1
# Processed by: cddbd v1.4b41PL1 Copyright (c) Steve Scherf et al.
# Submitted via: DiscPlay 3.3.1
#
DISCID=b60b5c0f
DTITLE=Anne Murray - Fifteen Of The Best
DYEAR=1900
DGENRE=
TTITLE0=Shadows In The Moonlight
TTITLE1=You Needed Me
TTITLE2=Could I Have This Dance
TTITLE3=Feed The Fire
TTITLE4=Blessed Are The Believers
TTITLE5=I Can See Arkansas
TTITLE6=I Just Fall In Love Again
TTITLE7=New Way Out
TTITLE8=Snowbird
TTITLE9=Danny's Song
TTITLE10=Even the Nights Are Better
TTITLE11=A Little Good News
TTITLE12=Just Another Woman In Love
TTITLE13=Broken Hearted Me
TTITLE14=Oh Yes I Do
EXTD=
EXTT0=
EXTT1=
EXTT2=
EXTT3=
EXTT4=
EXTT5=
EXTT6=
EXTT7=
EXTT8=
EXTT9=
EXTT10=
EXTT11=
EXTT12=
EXTT13=
EXTT14=
PLAYORDER=
